<svg xmlns="http://www.w3.org/2000/svg" xmlns:xlink="http://www.w3.org/1999/xlink" xmlns:inkscape="http://www.inkscape.org/namespaces/inkscape" version="1.1" width="400" height="572.119" viewBox="0 0 400 572.119">
<defs>
<clipPath id="clip_1">
<path transform="matrix(1,0,0,-1,0,572.119)" d="M0 572.119H400V0H0Z"/>
</clipPath>
<path id="font_2_38" d="M.4038086 .6503906C.32535807 .6503906 .26342774 .6242421 .21801758 .5719452 .17260742 .5196584 .14990235 .44806925 .14990235 .35717774 .14990235 .26367188 .17179363 .19142659 .21557617 .1404419 .25935874 .08945719 .32177735 .063964847 .40283204 .063964847 .45263673 .063964847 .5094401 .072916667 .5732422 .09082031V.018066407C.523763-.00048828127 .46272788-.009765625 .39013673-.009765625 .2849935-.009765625 .20385742 .022155762 .14672852 .085998538 .08959961 .14984131 .061035158 .24055989 .061035158 .3581543 .061035158 .43177287 .074788417 .4962667 .10229492 .55163577 .12980144 .60701498 .16951497 .6496887 .22143555 .679657 .2733561 .70962527 .33447267 .7246094 .40478517 .7246094 .47965495 .7246094 .54508468 .7109375 .6010742 .68359377L.56591799 .6123047C.51188156 .6376953 .45784507 .6503906 .4038086 .6503906Z"/>
<path id="font_2_68" d="M.41503907 0 .39892579 .076293949H.39501954C.3683268 .042714437 .34171549 .019973755 .31518556 .008071899 .2886556-.0038197835 .25553385-.009765625 .21582031-.009765625 .16276042-.009765625 .12117513 .003926595 .09106445 .031311037 .060953779 .058695478 .045898439 .09765116 .045898439 .1481781 .045898439 .2564138 .13232422 .31314088 .30517579 .31835938L.3959961 .32128907V.35438539C.3959961 .39624534 .3869629 .42715455 .36889649 .44711305 .35083009 .46707154 .3219401 .47705079 .28222657 .47705079 .2376302 .47705079 .18717449 .4633789 .13085938 .43603517L.10595703 .49804688C.13232422 .5123698 .16121419 .5236003 .19262696 .5317383 .22403972 .5398763 .25553385 .5439453 .28710938 .5439453 .35091148 .5439453 .39819337 .52978518 .42895509 .50146487 .4597168 .47314454 .47509767 .42773438 .47509767 .36523438V0H.41503907M.2319336 .057128908C.2823893 .057128908 .32202149 .07099406 .35083009 .098724368 .37963868 .12646485 .39404298 .16529338 .39404298 .21520996V.26367188L.31298829 .26023866C.24853516 .25796 .20206706 .24792989 .17358399 .23014832 .1451009 .21236675 .13085938 .18471273 .13085938 .14718628 .13085938 .1178182 .13972982 .09546407 .1574707 .0801239 .1752116 .06479391 .20003255 .057128908 .2319336 .057128908Z"/>
<path id="font_2_80" d="M.7680664 0V.34814454C.7680664 .39078776 .75895187 .42277018 .74072268 .4440918 .72249349 .46541343 .69417318 .47607423 .6557617 .47607423 .60530599 .47607423 .5680339 .46158854 .5439453 .4326172 .51985678 .40364585 .5078125 .35904948 .5078125 .29882813V0H.4267578V.34814454C.4267578 .39078776 .41764323 .42277018 .39941407 .4440918 .3811849 .46541343 .3527018 .47607423 .31396485 .47607423 .2631836 .47607423 .22599285 .4608561 .20239258 .43041993 .17879232 .39998374 .16699219 .35009767 .16699219 .28076173V0H.0859375V.53515627H.15185547L.16503906 .46191407H.16894531C.1842448 .48795573 .20581055 .5083008 .23364258 .5229492 .2614746 .53759768 .29264323 .5449219 .32714845 .5449219 .41080729 .5449219 .46549479 .51464846 .49121095 .45410157H.4951172C.5110677 .48209635 .5341797 .50423178 .5644531 .5205078 .59472659 .5367839 .62923178 .5449219 .66796877 .5449219 .7285156 .5449219 .7738444 .52937826 .8039551 .49829103 .83406576 .46720378 .8491211 .41748048 .8491211 .3491211V0H.7680664Z"/>
<path id="font_2_83" d="M.33496095-.009765625C.30013023-.009765625 .26831056-.0033365887 .23950196 .009521484 .21069336 .022379557 .18652344 .04215495 .16699219 .068847659H.16113281C.16503906 .037597658 .16699219 .007975261 .16699219-.020019532V-.24023438H.0859375V.53515627H.15185547L.16308594 .46191407H.16699219C.18782552 .49121095 .21207683 .5123698 .2397461 .5253906 .26741538 .53841146 .29915367 .5449219 .33496095 .5449219 .40592448 .5449219 .46069337 .5206706 .49926759 .47216798 .5378418 .42366538 .5571289 .3556315 .5571289 .2680664 .5571289 .18017578 .5375163 .11189779 .49829103 .06323242 .45906578 .014567058 .4046224-.009765625 .33496095-.009765625M.3232422 .47607423C.2685547 .47607423 .2290039 .4609375 .20458985 .43066407 .18017578 .40039063 .16764324 .35221354 .16699219 .2861328V.2680664C.16699219 .1928711 .17952474 .13907878 .20458985 .10668945 .22965496 .07430013 .26985679 .05810547 .3251953 .05810547 .37141929 .05810547 .40763346 .076822917 .4338379 .11425781 .46004234 .1516927 .47314454 .20328777 .47314454 .26904298 .47314454 .33577476 .46004234 .3869629 .4338379 .42260743 .40763346 .45825196 .37076823 .47607423 .3232422 .47607423Z"/>
<path id="font_2_88" d="M.16210938 .53515627V.18798828C.16210938 .14436849 .17203777 .111816409 .19189453 .09033203 .2117513 .068847659 .24283855 .05810547 .28515626 .05810547 .34114585 .05810547 .38208009 .073404949 .40795899 .104003909 .4338379 .13460286 .44677735 .18457031 .44677735 .25390626V.53515627H.52783206V0H.4609375L.44921876 .071777347H.44482423C.42822267 .045410158 .40519206 .025227866 .37573243 .011230469 .3462728-.002766927 .31266276-.009765625 .27490235-.009765625 .20979817-.009765625 .16105144 .0056966149 .12866211 .036621095 .09627279 .06754557 .080078128 .11702474 .080078128 .1850586V.53515627H.16210938Z"/>
<path id="font_2_86" d="M.43115235 .1459961C.43115235 .096191409 .41259767 .05777995 .37548829 .030761719 .3383789 .0037434896 .28629557-.009765625 .21923828-.009765625 .14827474-.009765625 .092936199 .0015157064 .053222658 .02407837V.099609378C.078938808 .08643595 .106526698 .076059978 .13598633 .068481449 .16544597 .060913087 .19384766 .057128908 .2211914 .057128908 .26350913 .057128908 .2960612 .06388346 .31884767 .07739258 .34163413 .090901698 .35302735 .11149088 .35302735 .13916016 .35302735 .15999349 .34399415 .17781575 .32592774 .19262696 .30786134 .20743816 .2726237 .22493489 .22021485 .24511719 .17041016 .26367188 .13500977 .27986656 .11401367 .29370118 .09301758 .3075358 .07739258 .3232422 .06713867 .3408203 .056884767 .35839845 .051757814 .37939454 .051757814 .4038086 .051757814 .44742839 .069498699 .4818522 .10498047 .5070801 .14046224 .5323079 .18912761 .5449219 .25097657 .5449219 .30859376 .5449219 .36490885 .5332031 .41992188 .5097656L.39111329 .44384767C.33740235 .46598307 .28873698 .47705079 .24511719 .47705079 .20670574 .47705079 .17773438 .47102867 .15820313 .45898438 .13867188 .4469401 .12890625 .43033854 .12890625 .4091797 .12890625 .39485679 .13256836 .38264976 .13989258 .3725586 .1472168 .36246745 .15901692 .3528646 .17529297 .34375 .19156902 .3346354 .22281902 .3214518 .26904298 .30419923 .33251954 .28108726 .3754069 .2578125 .39770509 .234375 .42000328 .2109375 .43115235 .18147786 .43115235 .1459961Z"/>
<path id="font_2_51" d="M.55078127 .50608828C.55078127 .43390403 .52612307 .37838236 .47680665 .33952333 .42749024 .30067445 .3569336 .28125 .26513673 .28125H.18115235V0H.09814453V.7138672H.28320313C.46158854 .7138672 .55078127 .64460757 .55078127 .50608828M.18115235 .35253907H.25585938C.3294271 .35253907 .38264976 .36440025 .41552735 .38812257 .44840495 .41184489 .46484376 .44986473 .46484376 .502182 .46484376 .54931136 .4493815 .5844116 .41845704 .6074829 .38753257 .6305542 .33935548 .64208987 .27392579 .64208987H.18115235V.35253907Z"/>
<path id="font_2_82" d="M.54785159 .2680664C.54785159 .18082683 .5258789 .112711589 .4819336 .0637207 .43798829 .014729817 .37727867-.009765625 .2998047-.009765625 .25195313-.009765625 .20947266 .0014648438 .17236328 .023925782 .1352539 .04638672 .10660807 .07861328 .08642578 .12060547 .06624349 .16259766 .056152345 .2117513 .056152345 .2680664 .056152345 .355306 .07796224 .42325846 .12158203 .47192384 .16520183 .5205892 .2257487 .5449219 .30322267 .5449219 .37809245 .5449219 .4375814 .52001956 .48168946 .47021485 .52579757 .42041017 .54785159 .35302735 .54785159 .2680664M.14013672 .2680664C.14013672 .19970703 .1538086 .1476237 .18115235 .111816409 .2084961 .07600912 .24869792 .05810547 .3017578 .05810547 .35481773 .05810547 .39510093 .075927738 .42260743 .111572269 .45011393 .1472168 .4638672 .19938152 .4638672 .2680664 .4638672 .33610026 .45011393 .3877767 .42260743 .4230957 .39510093 .4584147 .3544922 .47607423 .30078126 .47607423 .24772136 .47607423 .2076823 .45865885 .18066406 .42382813 .15364583 .3889974 .14013672 .3370768 .14013672 .2680664Z"/>
<path id="font_2_85" d="M.33007813 .5449219C.35384117 .5449219 .37516276 .54296877 .39404298 .5390625L.3828125 .4638672C.3606771 .46875 .34114585 .4711914 .32421876 .4711914 .28092448 .4711914 .24389649 .45361329 .21313477 .41845704 .18237305 .38330079 .16699219 .33951823 .16699219 .28710938V0H.0859375V.53515627H.15283203L.16210938 .43603517H.16601563C.18587239 .47086589 .20979817 .49772135 .23779297 .51660159 .26578776 .53548178 .29654948 .5449219 .33007813 .5449219Z"/>
<path id="font_2_87" d="M.25878907 .057128908C.27311198 .057128908 .28694663 .058186849 .30029298 .060302736 .3136393 .06241862 .32421876 .06461588 .33203126 .06689453V.0048828127C.3232422 .0006510417 .31030274-.0028483074 .2932129-.0056152346 .27612306-.008382161 .2607422-.009765625 .24707031-.009765625 .14355469-.009765625 .091796878 .044759115 .091796878 .1538086V.47216798H.015136719V.51123049L.091796878 .5449219 .12597656 .6591797H.17285156V.53515627H.328125V.47216798H.17285156V.15722656C.17285156 .125 .1805013 .100260417 .19580078 .08300781 .21110027 .06575521 .23209636 .057128908 .25878907 .057128908Z"/>
<path id="font_2_3" d=""/>
<path id="font_2_54" d="M.50097659 .19007874C.50097659 .12721253 .4781901 .078186038 .4326172 .042999269 .38704429 .007822673 .3251953-.009765625 .24707031-.009765625 .16243489-.009765625 .09733073 .0011393229 .051757814 .022949219V.103027347C.08105469 .090657558 .11295573 .08089193 .14746094 .07373047 .18196614 .06656901 .21614583 .06298828 .25 .06298828 .30533854 .06298828 .34700523 .0734965 .375 .09451294 .40299479 .11552938 .4169922 .14477539 .4169922 .18225098 .4169922 .20701091 .41202799 .22728984 .4020996 .24308777 .39217124 .2588857 .37556968 .27346293 .35229493 .28681947 .32902018 .300176 .29361979 .31532289 .24609375 .33226014 .1796875 .35603334 .13224285 .38420616 .103759769 .41677857 .075276698 .44936119 .061035158 .49187217 .061035158 .5443115 .061035158 .59936526 .08170573 .6431783 .123046878 .67575076 .16438802 .7083232 .21907552 .7246094 .28710938 .7246094 .3580729 .7246094 .42333985 .71158859 .48291017 .6855469L.45703126 .61328127C.39811198 .6380208 .3408203 .6503906 .28515626 .6503906 .24121094 .6503906 .20686849 .64094039 .1821289 .6220398 .15738933 .6031392 .14501953 .5769043 .14501953 .54333499 .14501953 .518575 .14957683 .4982961 .1586914 .48249818 .16780599 .46670024 .18318685 .45220439 .20483399 .43901063 .22648113 .42582704 .25960288 .41125489 .30419923 .3952942 .379069 .36858116 .43058268 .33991496 .45874024 .30929566 .4868978 .27867637 .50097659 .23893738 .50097659 .19007874Z"/>
<path id="font_2_72" d="M.31201173-.009765625C.23291016-.009765625 .17049153 .014322917 .12475586 .0625 .07902018 .110677089 .056152345 .17757161 .056152345 .2631836 .056152345 .34944663 .07739258 .41796876 .11987305 .46875 .16235352 .51953127 .21940105 .5449219 .29101563 .5449219 .3580729 .5449219 .4111328 .52290347 .4501953 .47886659 .4892578 .43483988 .50878909 .37674967 .50878909 .30459596V.25341798H.14013672C.14176433 .19042969 .15763347 .14261882 .18774414 .10998535 .21785482 .07735189 .2602539 .061035158 .3149414 .061035158 .3725586 .061035158 .42952476 .07307943 .48583985 .09716797V.024902344C.457194 .012532552 .4300944 .0036621094 .40454103-.0017089844 .37898765-.007080078 .34814454-.009765625 .31201173-.009765625M.29003907 .47705079C.24707031 .47705079 .21280925 .4630941 .18725586 .43518067 .16170247 .40727744 .14664714 .3686625 .14208985 .31933595H.421875C.421875 .37027995 .41048179 .40930177 .3876953 .43640138 .36490885 .46350099 .33235679 .47705079 .29003907 .47705079Z"/>
<path id="font_2_74" d="M.5239258 .53515627V.48388673L.4248047 .47216798C.43391929 .46079508 .44205729 .44592796 .44921876 .42756654 .45638023 .4092051 .45996095 .38848878 .45996095 .36541749 .45996095 .3131002 .44205729 .27134196 .40625 .24014282 .37044273 .20895386 .32128907 .19335938 .25878907 .19335938 .24283855 .19335938 .22786458 .19466146 .21386719 .19726563 .17936199 .17895508 .16210938 .15590413 .16210938 .1281128 .16210938 .11340332 .16813152 .102533977 .18017578 .09550476 .19222005 .08847555 .21289063 .08496094 .2421875 .08496094H.33691407C.39485679 .08496094 .43937174 .072753909 .47045899 .048339845 .5015462 .023925782 .51708987-.011555989 .51708987-.05810547 .51708987-.11735026 .4933268-.16251628 .44580079-.19360352 .39827476-.22469075 .3289388-.24023438 .23779297-.24023438 .16780599-.24023438 .113850917-.22721355 .075927738-.20117188 .03800456-.1751302 .019042969-.13834636 .019042969-.09082031 .019042969-.05826823 .029459635-.030110678 .05029297-.0063476564 .071126308 .017415366 .10042318 .033528646 .1381836 .041992189 .12451172 .04819743 .11303711 .057825727 .103759769 .070877078 .09448242 .0839386 .08984375 .099116008 .08984375 .1164093 .08984375 .13599141 .095052089 .15312703 .10546875 .16781616 .115885417 .1825053 .13232422 .19670613 .15478516 .2104187 .12711589 .22179158 .10457357 .24112956 .0871582 .26843263 .069742839 .29574586 .061035158 .32695518 .061035158 .36206056 .061035158 .4205831 .07861328 .46568809 .11376953 .4973755 .14892578 .52907308 .19873047 .5449219 .2631836 .5449219 .29117839 .5449219 .31640626 .5416667 .3388672 .53515627H.5239258M.09716797-.08984375C.09716797-.1188151 .109375-.14078777 .13378906-.15576172 .15820313-.17073567 .19319661-.17822266 .23876953-.17822266 .30680339-.17822266 .35717774-.16805013 .38989259-.14770508 .42260743-.12736003 .43896485-.09977213 .43896485-.064941409 .43896485-.03597005 .43001304-.01586914 .41210938-.004638672 .39420573 .006591797 .3605143 .012207031 .31103517 .012207031H.21386719C.17708333 .012207031 .1484375 .0034179688 .12792969-.014160156 .107421878-.03173828 .09716797-.056966146 .09716797-.08984375M.14111328 .36402894C.14111328 .32666526 .1516927 .29840089 .17285156 .27923585 .19401042 .2600708 .22347005 .25048829 .26123048 .25048829 .34033204 .25048829 .3798828 .28881837 .3798828 .36547853 .3798828 .4457194 .33984376 .48583985 .25976563 .48583985 .22167969 .48583985 .19238281 .4756063 .171875 .45513917 .15136719 .43467204 .14111328 .40430198 .14111328 .36402894Z"/>
</defs>
<g inkscape:groupmode="layer" inkscape:label="Camada 1">
<g clip-path="url(#clip_1)">
<path transform="matrix(1,0,0,-1,156.986,385.48335)" d="M0 0V-10.184H5.687C7.888-10.184 9.545-9.759 10.657-8.908 11.771-8.059 12.326-6.727 12.326-4.915 12.326-3.228 11.758-1.986 10.62-1.191 9.482-.397 7.751 0 5.427 0ZM0 2.681H5.222C7.459 2.681 9.069 3.031 10.052 3.732 11.033 4.434 11.524 5.616 11.524 7.279 11.524 8.806 10.978 9.907 9.884 10.584 8.789 11.26 7.049 11.599 4.662 11.599H0ZM-3.171 14.335H4.531C8.149 14.335 10.767 13.795 12.383 12.715 13.999 11.636 14.807 9.929 14.807 7.596 14.807 5.982 14.356 4.651 13.455 3.603 12.554 2.554 11.238 1.874 9.511 1.563V1.378C13.65 .67 15.721-1.502 15.721-5.139 15.721-7.571 14.897-9.47 13.25-10.835 11.603-12.2 9.299-12.883 6.34-12.883H-3.171Z" fill="#1d1d1b"/>
<path transform="matrix(1,0,0,-1,183.6725,396.18833)" d="M0 0C1.927 0 3.44 .527 4.541 1.583 5.641 2.638 6.191 4.115 6.191 6.014V7.856L3.096 7.727C.634 7.64-1.142 7.258-2.229 6.581-3.317 5.905-3.86 4.854-3.86 3.426-3.86 2.309-3.522 1.459-2.845 .875-2.167 .292-1.219 0 0 0M6.993-2.178 6.378 .727H6.229C5.209-.552 4.192-1.418 3.18-1.87 2.166-2.323 .901-2.55-.616-2.55-2.643-2.55-4.23-2.028-5.381-.986-6.53 .057-7.105 1.539-7.105 3.463-7.105 7.584-3.805 9.743 2.797 9.941L6.266 10.054V11.319C6.266 12.921 5.921 14.103 5.23 14.866 4.541 15.629 3.438 16.011 1.921 16.011 .217 16.011-1.71 15.489-3.86 14.447L-4.812 16.812C-3.805 17.357-2.701 17.785-1.502 18.096-.302 18.406 .901 18.562 2.107 18.562 4.544 18.562 6.35 18.021 7.524 16.941 8.699 15.862 9.287 14.131 9.287 11.748V-2.178Z" fill="#1d1d1b"/>
<path transform="matrix(1,0,0,-1,213.3239,398.36613)" d="M0 0V13.199C0 14.862-.379 16.104-1.137 16.923-1.896 17.742-3.083 18.151-4.699 18.151-6.851 18.151-8.42 17.568-9.408 16.401-10.396 15.234-10.891 13.323-10.891 10.667V0H-13.986V28.968H-10.891V20.199C-10.891 19.145-10.94 18.27-11.04 17.574H-10.854C-10.244 18.555-9.377 19.327-8.252 19.892-7.127 20.457-5.844 20.739-4.401 20.739-1.901 20.739-.027 20.146 1.222 18.961 2.472 17.775 3.097 15.893 3.097 13.311V0Z" fill="#1d1d1b"/>
<path transform="matrix(1,0,0,-1,0,572.119)" d="M225.875 173.753H222.779V194.15702H225.875ZM222.518 199.687C222.518 200.394 222.692 200.912 223.04 201.24 223.388 201.569 223.823 201.734 224.345 201.734 224.842 201.734 225.271 201.566 225.632 201.231 225.993 200.896 226.173 200.381 226.173 199.687 226.173 198.991 225.993 198.473 225.632 198.132 225.271 197.79 224.842 197.62 224.345 197.62 223.823 197.62 223.388 197.79 223.04 198.132 222.692 198.473 222.518 198.991 222.518 199.687" fill="#1d1d1b"/>
<path transform="matrix(1,0,0,-1,238.0153,396.18833)" d="M0 0C1.927 0 3.44 .527 4.541 1.583 5.642 2.638 6.191 4.115 6.191 6.014V7.856L3.096 7.727C.634 7.64-1.141 7.258-2.229 6.581-3.316 5.905-3.86 4.854-3.86 3.426-3.86 2.309-3.521 1.459-2.844 .875-2.167 .292-1.219 0 0 0M6.993-2.178 6.378 .727H6.229C5.209-.552 4.192-1.418 3.18-1.87 2.166-2.323 .901-2.55-.615-2.55-2.643-2.55-4.23-2.028-5.38-.986-6.53 .057-7.105 1.539-7.105 3.463-7.105 7.584-3.805 9.743 2.797 9.941L6.266 10.054V11.319C6.266 12.921 5.921 14.103 5.23 14.866 4.541 15.629 3.438 16.011 1.921 16.011 .217 16.011-1.71 15.489-3.86 14.447L-4.812 16.812C-3.805 17.357-2.701 17.785-1.501 18.096-.302 18.406 .901 18.562 2.107 18.562 4.544 18.562 6.35 18.021 7.524 16.941 8.699 15.862 9.287 14.131 9.287 11.748V-2.178Z" fill="#1d1d1b"/>
<path transform="matrix(1,0,0,-1,219.2555,116.19711)" d="M0 0C0-1.947-1.578-3.524-3.528-3.524H-32.724C-34.672-3.524-36.251-1.947-36.251 0V29.202C-36.251 31.146-34.672 32.729-32.724 32.729H-3.528C-1.578 32.729 0 31.146 0 29.202Z" fill="#359830"/>
<path transform="matrix(1,0,0,-1,262.7585,116.19711)" d="M0 0C0-1.947-1.58-3.524-3.526-3.524H-32.728C-34.67-3.524-36.254-1.947-36.254 0V29.202C-36.254 31.146-34.67 32.729-32.728 32.729H-3.526C-1.58 32.729 0 31.146 0 29.202Z" fill="#359830"/>
<path transform="matrix(1,0,0,-1,262.7585,203.20203)" d="M0 0C0-1.943-1.58-3.526-3.526-3.526H-32.728C-34.67-3.526-36.254-1.943-36.254 0V29.192C-36.254 31.149-34.67 32.732-32.728 32.732H-3.526C-1.58 32.732 0 31.149 0 29.192Z" fill="#359830"/>
<path transform="matrix(1,0,0,-1,175.7575,159.66983)" d="M0 0C0-1.949-1.579-3.531-3.53-3.531H-32.727C-34.675-3.531-36.254-1.949-36.254 0V29.196C-36.254 31.149-34.675 32.724-32.727 32.724H-3.53C-1.579 32.724 0 31.149 0 29.196Z" fill="#359830"/>
<path transform="matrix(1,0,0,-1,219.2555,159.66983)" d="M0 0C0-1.949-1.578-3.531-3.528-3.531H-32.724C-34.672-3.531-36.251-1.949-36.251 0V29.196C-36.251 31.149-34.672 32.724-32.724 32.724H-3.528C-1.578 32.724 0 31.149 0 29.196Z" fill="#359830"/>
<path transform="matrix(1,0,0,-1,175.7575,203.20203)" d="M0 0C0-1.943-1.579-3.526-3.53-3.526H-32.727C-34.675-3.526-36.254-1.943-36.254 0V29.192C-36.254 31.149-34.675 32.732-32.727 32.732H-3.53C-1.579 32.732 0 31.149 0 29.192Z" fill="#359830"/>
<path transform="matrix(1,0,0,-1,219.2555,203.20203)" d="M0 0C0-1.943-1.578-3.526-3.528-3.526H-32.724C-34.672-3.526-36.251-1.943-36.251 0V29.192C-36.251 31.149-34.672 32.732-32.724 32.732H-3.528C-1.578 32.732 0 31.149 0 29.192Z" fill="#359830"/>
<path transform="matrix(1,0,0,-1,175.7575,246.74692)" d="M0 0C0-1.949-1.579-3.53-3.53-3.53H-32.727C-34.675-3.53-36.254-1.949-36.254 0V29.191C-36.254 31.142-34.675 32.728-32.727 32.728H-3.53C-1.579 32.728 0 31.142 0 29.191Z" fill="#359830"/>
<path transform="matrix(1,0,0,-1,219.2555,246.74692)" d="M0 0C0-1.949-1.578-3.53-3.528-3.53H-32.724C-34.672-3.53-36.251-1.949-36.251 0V29.191C-36.251 31.142-34.672 32.728-32.724 32.728H-3.528C-1.578 32.728 0 31.142 0 29.191Z" fill="#359830"/>
<path transform="matrix(1,0,0,-1,177.5651,101.59952)" d="M0 0C0-11.008-8.925-19.937-19.937-19.937-30.946-19.937-39.869-11.008-39.869 0-39.869 11.017-30.946 19.946-19.937 19.946-8.925 19.946 0 11.017 0 0" fill="#c90c0f"/>
<path transform="matrix(1,0,0,-1,0,572.119)" d="M70.004 296.48H77.665V260.41304H70.004Z" fill="#1d1d1b"/>
<path transform="matrix(1,0,0,-1,118.8102,311.70594)" d="M0 0H-9.736L-25.454 27.285H-25.676C-25.363 22.466-25.207 19.028-25.207 16.973V0H-32.052V36.067H-22.39L-6.697 9.054H-6.524C-6.771 13.741-6.895 17.055-6.895 18.996V36.067H0Z" fill="#1d1d1b"/>
<path transform="matrix(1,0,0,-1,149.2301,301.6903)" d="M0 0C0-3.256-1.174-5.822-3.521-7.696-5.869-9.571-9.135-10.509-13.319-10.509-17.175-10.509-20.585-9.785-23.551-8.338V-1.233C-21.112-2.318-19.049-3.084-17.36-3.527-15.672-3.972-14.127-4.193-12.727-4.193-11.046-4.193-9.757-3.873-8.859-3.231-7.961-2.59-7.512-1.637-7.512-.37-7.512 .337-7.71 .967-8.105 1.518-8.501 2.068-9.081 2.599-9.848 3.108-10.613 3.618-12.175 4.433-14.53 5.551-16.738 6.587-18.394 7.582-19.497 8.536-20.602 9.489-21.483 10.6-22.142 11.866-22.801 13.133-23.13 14.613-23.13 16.307-23.13 19.497-22.047 22.006-19.881 23.831-17.715 25.656-14.72 26.569-10.897 26.569-9.02 26.569-7.228 26.348-5.522 25.903-3.817 25.459-2.034 24.834-.173 24.028L-2.644 18.083C-4.571 18.873-6.165 19.424-7.426 19.736-8.686 20.048-9.926 20.205-11.145 20.205-12.595 20.205-13.707 19.867-14.481 19.193-15.256 18.519-15.643 17.639-15.643 16.554-15.643 15.879-15.486 15.291-15.173 14.79-14.86 14.288-14.361 13.803-13.678 13.334-12.994 12.865-11.376 12.022-8.822 10.806-5.445 9.193-3.13 7.578-1.878 5.958-.626 4.338 0 2.353 0 0" fill="#1d1d1b"/>
<path transform="matrix(1,0,0,-1,169.7174,311.70594)" d="M0 0H-7.661V29.702H-17.472V36.067H9.811V29.702H0Z" fill="#1d1d1b"/>
<path transform="matrix(1,0,0,-1,0,572.119)" d="M185.088 296.48H192.749V260.41304H185.088Z" fill="#1d1d1b"/>
<path transform="matrix(1,0,0,-1,215.7809,311.70594)" d="M0 0H-7.661V29.702H-17.472V36.067H9.811V29.702H0Z" fill="#1d1d1b"/>
<path transform="matrix(1,0,0,-1,260.5592,275.63853)" d="M0 0V-23.338C0-26.003-.597-28.338-1.791-30.344-2.986-32.351-4.712-33.889-6.969-34.957-9.226-36.026-11.895-36.561-14.976-36.561-19.621-36.561-23.229-35.373-25.799-32.996-28.369-30.62-29.654-27.367-29.654-23.239V0H-22.019V-22.079C-22.019-24.859-21.458-26.898-20.338-28.198-19.218-29.497-17.364-30.146-14.777-30.146-12.273-30.146-10.457-29.493-9.328-28.186-8.2-26.878-7.636-24.826-7.636-22.03V0Z" fill="#1d1d1b"/>
<path transform="matrix(1,0,0,-1,283.3444,311.70594)" d="M0 0H-7.66V29.702H-17.471V36.067H9.812V29.702H0Z" fill="#1d1d1b"/>
<path transform="matrix(1,0,0,-1,305.1413,293.62294)" d="M0 0C0-4.029 .766-7.064 2.298-9.104 3.83-11.143 6.12-12.162 9.168-12.162 15.279-12.162 18.336-8.108 18.336 0 18.336 8.124 15.296 12.187 9.217 12.187 6.169 12.187 3.871 11.163 2.322 9.115 .773 7.067 0 4.029 0 0M26.367 0C26.367-5.97 24.885-10.559 21.919-13.766 18.954-16.973 14.703-18.576 9.168-18.576 3.632-18.576-.618-16.973-3.584-13.766-6.549-10.559-8.032-5.954-8.032 .049-8.032 6.052-6.545 10.637-3.571 13.803-.598 16.969 3.665 18.552 9.217 18.552 14.769 18.552 19.016 16.956 21.956 13.766 24.897 10.574 26.367 5.986 26.367 0" fill="#1d1d1b"/>
<path transform="matrix(1,0,0,-1,102.693,355.05363)" d="M0 0H-7.537V36.066H13.172V29.801H0V20.5H12.257V14.259H0Z" fill="#1d1d1b"/>
<path transform="matrix(1,0,0,-1,143.7399,355.05363)" d="M0 0H-20.808V36.066H0V29.801H-13.146V21.882H-.914V15.616H-13.146V6.315H0Z" fill="#1d1d1b"/>
<path transform="matrix(1,0,0,-1,173.2956,336.87193)" d="M0 0C0 7.746-3.427 11.619-10.28 11.619H-14.357V-11.866H-11.071C-3.69-11.866 0-7.911 0 0M7.957 .197C7.957-5.74 6.265-10.287 2.879-13.445-.507-16.603-5.396-18.182-11.788-18.182H-22.019V17.885H-10.676C-4.778 17.885-.198 16.331 3.064 13.223 6.326 10.114 7.957 5.772 7.957 .197" fill="#1d1d1b"/>
<path transform="matrix(1,0,0,-1,209.5485,355.05363)" d="M0 0H-20.808V36.066H0V29.801H-13.146V21.882H-.914V15.616H-13.146V6.315H0Z" fill="#1d1d1b"/>
<path transform="matrix(1,0,0,-1,224.7467,334.99693)" d="M0 0H2.471C4.893 0 6.681 .402 7.834 1.208 8.986 2.014 9.563 3.28 9.563 5.008 9.563 6.718 8.975 7.935 7.797 8.658 6.618 9.382 4.794 9.744 2.322 9.744H0ZM0-6.217V-20.057H-7.661V16.01H2.866C7.775 16.01 11.408 15.118 13.765 13.334 16.12 11.549 17.298 8.84 17.298 5.205 17.298 3.083 16.713 1.196 15.544-.457 14.374-2.109 12.718-3.404 10.576-4.342 16.014-12.45 19.556-17.688 21.203-20.057H12.702L4.077-6.217Z" fill="#1d1d1b"/>
<path transform="matrix(1,0,0,-1,268.1657,340.0545)" d="M0 0C-2.421 7.779-3.785 12.179-4.09 13.198-4.395 14.218-4.612 15.023-4.744 15.616-5.288 13.511-6.845 8.305-9.415 0ZM4.448-14.999 1.829-6.414H-11.343L-13.962-14.999H-22.216L-9.464 21.216H-.099L12.702-14.999Z" fill="#1d1d1b"/>
<path transform="matrix(1,0,0,-1,285.4147,355.05363)" d="M0 0V36.066H7.661V6.315H22.315V0Z" fill="#1d1d1b"/>
<path transform="matrix(1,0,0,-1,0,572.119)" d="M330.778 153.572H70.63602V155.543H330.778Z" fill="#359830"/>
</g>
<use data-text="C" xlink:href="#font_2_38" transform="matrix(38.1932,0,0,-38.1273,125.7759,462.08683)" fill="#1d1d1b"/>
<use data-text="a" xlink:href="#font_2_68" transform="matrix(38.1932,0,0,-38.1273,149.87581,462.08683)" fill="#1d1d1b"/>
<use data-text="m" xlink:href="#font_2_80" transform="matrix(38.1932,0,0,-38.1273,171.11124,462.08683)" fill="#1d1d1b"/>
<use data-text="p" xlink:href="#font_2_83" transform="matrix(38.1932,0,0,-38.1273,206.63092,462.08683)" fill="#1d1d1b"/>
<use data-text="u" xlink:href="#font_2_88" transform="matrix(38.1932,0,0,-38.1273,230.04335,462.08683)" fill="#1d1d1b"/>
<use data-text="s" xlink:href="#font_2_86" transform="matrix(38.1932,0,0,-38.1273,253.49398,462.08683)" fill="#1d1d1b"/>
<use data-text="P" xlink:href="#font_2_51" transform="matrix(38.1932,0,0,-38.1273,81.96831,507.83958)" fill="#1d1d1b"/>
<use data-text="o" xlink:href="#font_2_82" transform="matrix(38.1932,0,0,-38.1273,104.96062,507.83958)" fill="#1d1d1b"/>
<use data-text="r" xlink:href="#font_2_85" transform="matrix(38.1932,0,0,-38.1273,128.02931,507.83958)" fill="#1d1d1b"/>
<use data-text="t" xlink:href="#font_2_87" transform="matrix(38.1932,0,0,-38.1273,143.61214,507.83958)" fill="#1d1d1b"/>
<use data-text="o" xlink:href="#font_2_82" transform="matrix(38.1932,0,0,-38.1273,157.09433,507.83958)" fill="#1d1d1b"/>
<use data-text=" " xlink:href="#font_2_3" transform="matrix(38.1932,0,0,-38.1273,180.16303,507.83958)" fill="#1d1d1b"/>
<use data-text="S" xlink:href="#font_2_54" transform="matrix(38.1932,0,0,-38.1273,190.09326,507.83958)" fill="#1d1d1b"/>
<use data-text="e" xlink:href="#font_2_72" transform="matrix(38.1932,0,0,-38.1273,211.06133,507.83958)" fill="#1d1d1b"/>
<use data-text="g" xlink:href="#font_2_74" transform="matrix(38.1932,0,0,-38.1273,232.48772,507.83958)" fill="#1d1d1b"/>
<use data-text="u" xlink:href="#font_2_88" transform="matrix(38.1932,0,0,-38.1273,253.41759,507.83958)" fill="#1d1d1b"/>
<use data-text="r" xlink:href="#font_2_85" transform="matrix(38.1932,0,0,-38.1273,276.86824,507.83958)" fill="#1d1d1b"/>
<use data-text="o" xlink:href="#font_2_82" transform="matrix(38.1932,0,0,-38.1273,292.45106,507.83958)" fill="#1d1d1b"/>
</g>
</svg>
